STARTFONT 2.1
FONT pelm.latin1.8
SIZE 14 72 72
FONTBOUNDINGBOX 8 14 0 -3
STARTPROPERTIES 4
FONT_DESCENT 3
FONT_ASCENT 11
DEFAULT_CHAR 0
COPYRIGHT "Copyright (C) 1985 Bigelow & Holmes Inc. All rights reserved."
ENDPROPERTIES
CHARS 256
STARTCHAR ch-0
ENCODING 0
SWIDTH 571 0
DWIDTH 8 0
BBX 8 14 0 -3
BITMAP
00
18
3e
0f
87
ff
8f
0f
1f
0e
1c
1c
00
00
ENDCHAR
STARTCHAR ch-1
ENCODING 1
SWIDTH 571 0
DWIDTH 8 0
BBX 8 14 0 -3
BITMAP
70
80
60
10
e0
18
24
24
18
09
09
0f
09
09
ENDCHAR
STARTCHAR ch-2
ENCODING 2
SWIDTH 571 0
DWIDTH 8 0
BBX 8 14 0 -3
BITMAP
70
80
60
10
e0
00
7c
10
10
10
09
06
06
09
ENDCHAR
STARTCHAR ch-3
ENCODING 3
SWIDTH 571 0
DWIDTH 8 0
BBX 8 14 0 -3
BITMAP
f0
80
e0
80
f0
00
7c
10
10
10
09
06
06
09
ENDCHAR
STARTCHAR ch-4
ENCODING 4
SWIDTH 571 0
DWIDTH 8 0
BBX 8 14 0 -3
BITMAP
f0
80
e0
80
f0
18
24
24
18
00
1f
04
04
04
ENDCHAR
STARTCHAR ch-5
ENCODING 5
SWIDTH 571 0
DWIDTH 8 0
BBX 8 14 0 -3
BITMAP
f0
80
e0
80
f0
24
34
2c
24
0e
11
11
0e
03
ENDCHAR
STARTCHAR ch-6
ENCODING 6
SWIDTH 571 0
DWIDTH 8 0
BBX 8 14 0 -3
BITMAP
70
88
f8
88
00
1c
20
20
1c
09
0a
0c
0a
09
ENDCHAR
STARTCHAR ch-7
ENCODING 7
SWIDTH 571 0
DWIDTH 8 0
BBX 8 14 0 -3
BITMAP
00
00
18
18
24
42
42
42
42
ff
18
18
00
00
ENDCHAR
STARTCHAR ch-8
ENCODING 8
SWIDTH 571 0
DWIDTH 8 0
BBX 8 14 0 -3
BITMAP
f0
88
f0
88
88
f0
00
0e
11
10
0e
01
11
0e
ENDCHAR
STARTCHAR ch-9
ENCODING 9
SWIDTH 571 0
DWIDTH 8 0
BBX 8 14 0 -3
BITMAP
88
88
88
f8
88
88
00
3e
08
08
08
08
08
00
ENDCHAR
STARTCHAR ch-10
ENCODING 10
SWIDTH 571 0
DWIDTH 8 0
BBX 8 14 0 -3
BITMAP
88
c8
a8
a8
98
88
00
10
10
10
10
10
1f
00
ENDCHAR
STARTCHAR ch-11
ENCODING 11
SWIDTH 571 0
DWIDTH 8 0
BBX 8 14 0 -3
BITMAP
88
88
88
88
50
20
00
3e
08
08
08
08
08
00
ENDCHAR
STARTCHAR ch-12
ENCODING 12
SWIDTH 571 0
DWIDTH 8 0
BBX 8 14 0 -3
BITMAP
f8
80
80
e0
80
80
00
3e
20
20
38
20
20
00
ENDCHAR
STARTCHAR ch-13
ENCODING 13
SWIDTH 571 0
DWIDTH 8 0
BBX 8 14 0 -3
BITMAP
70
88
80
80
88
70
00
3c
22
22
2c
22
22
00
ENDCHAR
STARTCHAR ch-14
ENCODING 14
SWIDTH 571 0
DWIDTH 8 0
BBX 8 14 0 -3
BITMAP
70
88
80
70
08
f0
00
1c
22
22
22
22
1c
00
ENDCHAR
STARTCHAR ch-15
ENCODING 15
SWIDTH 571 0
DWIDTH 8 0
BBX 8 14 0 -3
BITMAP
70
88
80
70
08
f0
00
3e
08
08
08
08
3e
00
ENDCHAR
STARTCHAR ch-16
ENCODING 16
SWIDTH 571 0
DWIDTH 8 0
BBX 8 14 0 -3
BITMAP
e0
90
90
e0
20
20
20
3c
00
0f
08
0e
08
0f
ENDCHAR
STARTCHAR ch-17
ENCODING 17
SWIDTH 571 0
DWIDTH 8 0
BBX 8 14 0 -3
BITMAP
e0
90
90
e0
1c
20
20
1c
00
06
02
02
02
0f
ENDCHAR
STARTCHAR ch-18
ENCODING 18
SWIDTH 571 0
DWIDTH 8 0
BBX 8 14 0 -3
BITMAP
e0
90
90
e0
1c
20
20
1c
00
06
09
02
04
0f
ENDCHAR
STARTCHAR ch-19
ENCODING 19
SWIDTH 571 0
DWIDTH 8 0
BBX 8 14 0 -3
BITMAP
e0
90
90
e0
1c
20
20
1c
00
0f
01
03
01
0f
ENDCHAR
STARTCHAR ch-20
ENCODING 20
SWIDTH 571 0
DWIDTH 8 0
BBX 8 14 0 -3
BITMAP
e0
90
90
e0
1c
20
20
1c
00
0a
0a
0a
0f
02
ENDCHAR
STARTCHAR ch-21
ENCODING 21
SWIDTH 571 0
DWIDTH 8 0
BBX 8 14 0 -3
BITMAP
90
d0
b0
90
00
1c
22
3e
22
09
0a
0c
0a
09
ENDCHAR
STARTCHAR ch-22
ENCODING 22
SWIDTH 571 0
DWIDTH 8 0
BBX 8 14 0 -3
BITMAP
70
80
60
10
e0
24
24
1c
04
04
09
0d
0b
09
ENDCHAR
STARTCHAR ch-23
ENCODING 23
SWIDTH 571 0
DWIDTH 8 0
BBX 8 14 0 -3
BITMAP
f0
80
e0
80
f0
3e
08
08
08
1e
11
1e
11
1e
ENDCHAR
STARTCHAR ch-24
ENCODING 24
SWIDTH 571 0
DWIDTH 8 0
BBX 8 14 0 -3
BITMAP
70
80
80
70
00
1c
22
3e
22
00
09
0d
0b
09
ENDCHAR
STARTCHAR ch-25
ENCODING 25
SWIDTH 571 0
DWIDTH 8 0
BBX 8 14 0 -3
BITMAP
f8
80
80
e0
80
f8
00
22
36
2a
22
22
22
00
ENDCHAR
STARTCHAR ch-26
ENCODING 26
SWIDTH 571 0
DWIDTH 8 0
BBX 8 14 0 -3
BITMAP
70
80
60
10
e0
24
24
24
18
0e
09
0e
09
0f
ENDCHAR
STARTCHAR ch-27
ENCODING 27
SWIDTH 571 0
DWIDTH 8 0
BBX 8 14 0 -3
BITMAP
f0
80
e0
80
f0
1c
20
18
04
38
07
08
08
07
ENDCHAR
STARTCHAR ch-28
ENCODING 28
SWIDTH 571 0
DWIDTH 8 0
BBX 8 14 0 -3
BITMAP
f8
80
80
e0
80
80
00
0e
11
10
0e
01
11
0e
ENDCHAR
STARTCHAR ch-29
ENCODING 29
SWIDTH 571 0
DWIDTH 8 0
BBX 8 14 0 -3
BITMAP
70
88
80
98
88
70
00
0e
11
10
0e
01
11
0e
ENDCHAR
STARTCHAR ch-30
ENCODING 30
SWIDTH 571 0
DWIDTH 8 0
BBX 8 14 0 -3
BITMAP
f0
88
88
f0
88
88
00
0e
11
10
0e
01
11
0e
ENDCHAR
STARTCHAR ch-31
ENCODING 31
SWIDTH 571 0
DWIDTH 8 0
BBX 8 14 0 -3
BITMAP
88
88
88
88
88
70
00
0e
11
10
0e
01
11
0e
ENDCHAR
STARTCHAR ch-32
ENCODING 32
SWIDTH 571 0
DWIDTH 8 0
BBX 8 14 0 -3
BITMAP
00
00
00
00
00
00
00
00
00
00
00
00
00
00
ENDCHAR
STARTCHAR ch-33
ENCODING 33
SWIDTH 571 0
DWIDTH 8 0
BBX 8 14 0 -3
BITMAP
00
00
18
18
18
18
18
08
00
18
18
00
00
00
ENDCHAR
STARTCHAR ch-34
ENCODING 34
SWIDTH 571 0
DWIDTH 8 0
BBX 8 14 0 -3
BITMAP
00
00
24
24
24
24
00
00
00
00
00
00
00
00
ENDCHAR
STARTCHAR ch-35
ENCODING 35
SWIDTH 571 0
DWIDTH 8 0
BBX 8 14 0 -3
BITMAP
00
00
28
28
28
7c
28
7c
28
28
28
00
00
00
ENDCHAR
STARTCHAR ch-36
ENCODING 36
SWIDTH 571 0
DWIDTH 8 0
BBX 8 14 0 -3
BITMAP
00
08
3e
6a
68
78
3c
1e
16
56
7c
10
00
00
ENDCHAR
STARTCHAR ch-37
ENCODING 37
SWIDTH 571 0
DWIDTH 8 0
BBX 8 14 0 -3
BITMAP
00
00
70
da
da
74
28
5c
b6
b6
1c
00
00
00
ENDCHAR
STARTCHAR ch-38
ENCODING 38
SWIDTH 571 0
DWIDTH 8 0
BBX 8 14 0 -3
BITMAP
00
00
70
d8
d8
50
76
dc
cc
cc
76
00
00
00
ENDCHAR
STARTCHAR ch-39
ENCODING 39
SWIDTH 571 0
DWIDTH 8 0
BBX 8 14 0 -3
BITMAP
00
00
18
18
08
08
10
00
00
00
00
00
00
00
ENDCHAR
STARTCHAR ch-40
ENCODING 40
SWIDTH 571 0
DWIDTH 8 0
BBX 8 14 0 -3
BITMAP
00
0c
18
18
30
30
30
30
30
30
18
18
0c
00
ENDCHAR
STARTCHAR ch-41
ENCODING 41
SWIDTH 571 0
DWIDTH 8 0
BBX 8 14 0 -3
BITMAP
00
30
18
18
0c
0c
0c
0c
0c
0c
18
18
30
00
ENDCHAR
STARTCHAR ch-42
ENCODING 42
SWIDTH 571 0
DWIDTH 8 0
BBX 8 14 0 -3
BITMAP
00
00
00
10
54
38
ee
38
54
10
00
00
00
00
ENDCHAR
STARTCHAR ch-43
ENCODING 43
SWIDTH 571 0
DWIDTH 8 0
BBX 8 14 0 -3
BITMAP
00
00
00
00
18
18
7e
7e
18
18
00
00
00
00
ENDCHAR
STARTCHAR ch-44
ENCODING 44
SWIDTH 571 0
DWIDTH 8 0
BBX 8 14 0 -3
BITMAP
00
00
00
00
00
00
00
00
00
18
18
08
08
10
ENDCHAR
STARTCHAR ch-45
ENCODING 45
SWIDTH 571 0
DWIDTH 8 0
BBX 8 14 0 -3
BITMAP
00
00
00
00
00
00
fe
fe
00
00
00
00
00
00
ENDCHAR
STARTCHAR ch-46
ENCODING 46
SWIDTH 571 0
DWIDTH 8 0
BBX 8 14 0 -3
BITMAP
00
00
00
00
00
00
00
00
00
18
18
00
00
00
ENDCHAR
STARTCHAR ch-47
ENCODING 47
SWIDTH 571 0
DWIDTH 8 0
BBX 8 14 0 -3
BITMAP
00
06
06
0c
0c
18
18
30
30
60
60
c0
c0
00
ENDCHAR
STARTCHAR ch-48
ENCODING 48
SWIDTH 571 0
DWIDTH 8 0
BBX 8 14 0 -3
BITMAP
00
00
3c
66
66
66
66
66
66
66
3c
00
00
00
ENDCHAR
STARTCHAR ch-49
ENCODING 49
SWIDTH 571 0
DWIDTH 8 0
BBX 8 14 0 -3
BITMAP
00
00
18
38
58
18
18
18
18
18
7e
00
00
00
ENDCHAR
STARTCHAR ch-50
ENCODING 50
SWIDTH 571 0
DWIDTH 8 0
BBX 8 14 0 -3
BITMAP
00
00
3c
66
06
06
0c
18
30
7e
7e
00
00
00
ENDCHAR
STARTCHAR ch-51
ENCODING 51
SWIDTH 571 0
DWIDTH 8 0
BBX 8 14 0 -3
BITMAP
00
00
3c
66
06
06
18
06
06
66
3c
00
00
00
ENDCHAR
STARTCHAR ch-52
ENCODING 52
SWIDTH 571 0
DWIDTH 8 0
BBX 8 14 0 -3
BITMAP
00
00
1c
2c
2c
4c
4c
7e
7e
0c
0c
00
00
00
ENDCHAR
STARTCHAR ch-53
ENCODING 53
SWIDTH 571 0
DWIDTH 8 0
BBX 8 14 0 -3
BITMAP
00
00
3e
3e
20
20
3c
06
06
66
3c
00
00
00
ENDCHAR
STARTCHAR ch-54
ENCODING 54
SWIDTH 571 0
DWIDTH 8 0
BBX 8 14 0 -3
BITMAP
00
00
3c
66
60
60
7c
66
66
66
3c
00
00
00
ENDCHAR
STARTCHAR ch-55
ENCODING 55
SWIDTH 571 0
DWIDTH 8 0
BBX 8 14 0 -3
BITMAP
00
00
7e
7e
02
06
0c
18
18
30
30
00
00
00
ENDCHAR
STARTCHAR ch-56
ENCODING 56
SWIDTH 571 0
DWIDTH 8 0
BBX 8 14 0 -3
BITMAP
00
00
3c
66
66
76
3c
6e
66
66
3c
00
00
00
ENDCHAR
STARTCHAR ch-57
ENCODING 57
SWIDTH 571 0
DWIDTH 8 0
BBX 8 14 0 -3
BITMAP
00
00
3c
66
66
66
3e
06
06
66
3c
00
00
00
ENDCHAR
STARTCHAR ch-58
ENCODING 58
SWIDTH 571 0
DWIDTH 8 0
BBX 8 14 0 -3
BITMAP
00
00
00
00
18
18
00
00
00
18
18
00
00
00
ENDCHAR
STARTCHAR ch-59
ENCODING 59
SWIDTH 571 0
DWIDTH 8 0
BBX 8 14 0 -3
BITMAP
00
00
00
00
18
18
00
00
00
18
18
08
08
10
ENDCHAR
STARTCHAR ch-60
ENCODING 60
SWIDTH 571 0
DWIDTH 8 0
BBX 8 14 0 -3
BITMAP
00
00
02
06
0c
18
30
18
0c
06
02
00
00
00
ENDCHAR
STARTCHAR ch-61
ENCODING 61
SWIDTH 571 0
DWIDTH 8 0
BBX 8 14 0 -3
BITMAP
00
00
00
00
fe
fe
00
00
fe
fe
00
00
00
00
ENDCHAR
STARTCHAR ch-62
ENCODING 62
SWIDTH 571 0
DWIDTH 8 0
BBX 8 14 0 -3
BITMAP
00
00
40
60
30
18
0c
18
30
60
40
00
00
00
ENDCHAR
STARTCHAR ch-63
ENCODING 63
SWIDTH 571 0
DWIDTH 8 0
BBX 8 14 0 -3
BITMAP
00
00
3c
66
06
0c
18
18
00
18
18
00
00
00
ENDCHAR
STARTCHAR ch-64
ENCODING 64
SWIDTH 571 0
DWIDTH 8 0
BBX 8 14 0 -3
BITMAP
00
00
3c
42
9e
b6
b6
b6
9a
40
3e
00
00
00
ENDCHAR
STARTCHAR ch-65
ENCODING 65
SWIDTH 571 0
DWIDTH 8 0
BBX 8 14 0 -3
BITMAP
00
00
18
18
2c
2c
2c
7e
46
46
46
00
00
00
ENDCHAR
STARTCHAR ch-66
ENCODING 66
SWIDTH 571 0
DWIDTH 8 0
BBX 8 14 0 -3
BITMAP
00
00
7c
66
66
66
7c
66
66
66
7c
00
00
00
ENDCHAR
STARTCHAR ch-67
ENCODING 67
SWIDTH 571 0
DWIDTH 8 0
BBX 8 14 0 -3
BITMAP
00
00
1e
32
60
60
60
60
60
32
1e
00
00
00
ENDCHAR
STARTCHAR ch-68
ENCODING 68
SWIDTH 571 0
DWIDTH 8 0
BBX 8 14 0 -3
BITMAP
00
00
78
6c
66
66
66
66
66
6c
78
00
00
00
ENDCHAR
STARTCHAR ch-69
ENCODING 69
SWIDTH 571 0
DWIDTH 8 0
BBX 8 14 0 -3
BITMAP
00
00
7e
60
60
60
7c
60
60
60
7e
00
00
00
ENDCHAR
STARTCHAR ch-70
ENCODING 70
SWIDTH 571 0
DWIDTH 8 0
BBX 8 14 0 -3
BITMAP
00
00
7e
60
60
60
7c
60
60
60
60
00
00
00
ENDCHAR
STARTCHAR ch-71
ENCODING 71
SWIDTH 571 0
DWIDTH 8 0
BBX 8 14 0 -3
BITMAP
00
00
1e
32
60
60
6e
66
66
36
1e
00
00
00
ENDCHAR
STARTCHAR ch-72
ENCODING 72
SWIDTH 571 0
DWIDTH 8 0
BBX 8 14 0 -3
BITMAP
00
00
66
66
66
66
7e
66
66
66
66
00
00
00
ENDCHAR
STARTCHAR ch-73
ENCODING 73
SWIDTH 571 0
DWIDTH 8 0
BBX 8 14 0 -3
BITMAP
00
00
3c
18
18
18
18
18
18
18
3c
00
00
00
ENDCHAR
STARTCHAR ch-74
ENCODING 74
SWIDTH 571 0
DWIDTH 8 0
BBX 8 14 0 -3
BITMAP
00
00
7c
18
18
18
18
18
18
18
18
18
70
00
ENDCHAR
STARTCHAR ch-75
ENCODING 75
SWIDTH 571 0
DWIDTH 8 0
BBX 8 14 0 -3
BITMAP
00
00
66
64
6c
68
78
6c
6c
66
66
00
00
00
ENDCHAR
STARTCHAR ch-76
ENCODING 76
SWIDTH 571 0
DWIDTH 8 0
BBX 8 14 0 -3
BITMAP
00
00
60
60
60
60
60
60
60
60
7e
00
00
00
ENDCHAR
STARTCHAR ch-77
ENCODING 77
SWIDTH 571 0
DWIDTH 8 0
BBX 8 14 0 -3
BITMAP
00
00
66
66
66
7e
5a
5a
5a
5a
42
00
00
00
ENDCHAR
STARTCHAR ch-78
ENCODING 78
SWIDTH 571 0
DWIDTH 8 0
BBX 8 14 0 -3
BITMAP
00
00
62
72
72
5a
5a
4e
4e
46
46
00
00
00
ENDCHAR
STARTCHAR ch-79
ENCODING 79
SWIDTH 571 0
DWIDTH 8 0
BBX 8 14 0 -3
BITMAP
00
00
3c
24
66
66
66
66
66
24
3c
00
00
00
ENDCHAR
STARTCHAR ch-80
ENCODING 80
SWIDTH 571 0
DWIDTH 8 0
BBX 8 14 0 -3
BITMAP
00
00
7c
66
66
66
64
78
60
60
60
00
00
00
ENDCHAR
STARTCHAR ch-81
ENCODING 81
SWIDTH 571 0
DWIDTH 8 0
BBX 8 14 0 -3
BITMAP
00
00
3c
24
66
66
66
66
66
24
3c
0c
06
00
ENDCHAR
STARTCHAR ch-82
ENCODING 82
SWIDTH 571 0
DWIDTH 8 0
BBX 8 14 0 -3
BITMAP
00
00
7c
66
66
64
78
6c
66
66
66
00
00
00
ENDCHAR
STARTCHAR ch-83
ENCODING 83
SWIDTH 571 0
DWIDTH 8 0
BBX 8 14 0 -3
BITMAP
00
00
3c
66
60
70
3c
0e
06
66
3c
00
00
00
ENDCHAR
STARTCHAR ch-84
ENCODING 84
SWIDTH 571 0
DWIDTH 8 0
BBX 8 14 0 -3
BITMAP
00
00
7e
18
18
18
18
18
18
18
18
00
00
00
ENDCHAR
STARTCHAR ch-85
ENCODING 85
SWIDTH 571 0
DWIDTH 8 0
BBX 8 14 0 -3
BITMAP
00
00
62
62
62
62
62
62
62
34
18
00
00
00
ENDCHAR
STARTCHAR ch-86
ENCODING 86
SWIDTH 571 0
DWIDTH 8 0
BBX 8 14 0 -3
BITMAP
00
00
66
62
62
66
34
34
34
18
18
00
00
00
ENDCHAR
STARTCHAR ch-87
ENCODING 87
SWIDTH 571 0
DWIDTH 8 0
BBX 8 14 0 -3
BITMAP
00
00
c2
da
da
da
da
6c
6c
6c
6c
00
00
00
ENDCHAR
STARTCHAR ch-88
ENCODING 88
SWIDTH 571 0
DWIDTH 8 0
BBX 8 14 0 -3
BITMAP
00
00
66
62
36
34
18
2c
6c
46
66
00
00
00
ENDCHAR
STARTCHAR ch-89
ENCODING 89
SWIDTH 571 0
DWIDTH 8 0
BBX 8 14 0 -3
BITMAP
00
00
66
62
66
34
34
18
18
18
18
00
00
00
ENDCHAR
STARTCHAR ch-90
ENCODING 90
SWIDTH 571 0
DWIDTH 8 0
BBX 8 14 0 -3
BITMAP
00
00
7e
06
0c
0c
18
30
30
60
7e
00
00
00
ENDCHAR
STARTCHAR ch-91
ENCODING 91
SWIDTH 571 0
DWIDTH 8 0
BBX 8 14 0 -3
BITMAP
00
3c
30
30
30
30
30
30
30
30
30
30
3c
00
ENDCHAR
STARTCHAR ch-92
ENCODING 92
SWIDTH 571 0
DWIDTH 8 0
BBX 8 14 0 -3
BITMAP
00
c0
c0
60
60
30
30
18
18
0c
0c
06
06
00
ENDCHAR
STARTCHAR ch-93
ENCODING 93
SWIDTH 571 0
DWIDTH 8 0
BBX 8 14 0 -3
BITMAP
00
3c
0c
0c
0c
0c
0c
0c
0c
0c
0c
0c
3c
00
ENDCHAR
STARTCHAR ch-94
ENCODING 94
SWIDTH 571 0
DWIDTH 8 0
BBX 8 14 0 -3
BITMAP
00
00
10
38
28
6c
44
44
00
00
00
00
00
00
ENDCHAR
STARTCHAR ch-95
ENCODING 95
SWIDTH 571 0
DWIDTH 8 0
BBX 8 14 0 -3
BITMAP
00
00
00
00
00
00
00
00
00
00
00
fe
00
00
ENDCHAR
STARTCHAR ch-96
ENCODING 96
SWIDTH 571 0
DWIDTH 8 0
BBX 8 14 0 -3
BITMAP
00
00
08
10
10
18
18
00
00
00
00
00
00
00
ENDCHAR
STARTCHAR ch-97
ENCODING 97
SWIDTH 571 0
DWIDTH 8 0
BBX 8 14 0 -3
BITMAP
00
00
00
00
3c
66
06
3e
66
6e
36
00
00
00
ENDCHAR
STARTCHAR ch-98
ENCODING 98
SWIDTH 571 0
DWIDTH 8 0
BBX 8 14 0 -3
BITMAP
00
60
60
60
6c
76
66
66
66
66
7c
00
00
00
ENDCHAR
STARTCHAR ch-99
ENCODING 99
SWIDTH 571 0
DWIDTH 8 0
BBX 8 14 0 -3
BITMAP
00
00
00
00
3c
66
60
60
60
66
3c
00
00
00
ENDCHAR
STARTCHAR ch-100
ENCODING 100
SWIDTH 571 0
DWIDTH 8 0
BBX 8 14 0 -3
BITMAP
00
06
06
06
3e
66
66
66
66
6e
36
00
00
00
ENDCHAR
STARTCHAR ch-101
ENCODING 101
SWIDTH 571 0
DWIDTH 8 0
BBX 8 14 0 -3
BITMAP
00
00
00
00
3c
66
66
7e
60
66
3c
00
00
00
ENDCHAR
STARTCHAR ch-102
ENCODING 102
SWIDTH 571 0
DWIDTH 8 0
BBX 8 14 0 -3
BITMAP
00
1e
30
30
7e
30
30
30
30
30
7c
00
00
00
ENDCHAR
STARTCHAR ch-103
ENCODING 103
SWIDTH 571 0
DWIDTH 8 0
BBX 8 14 0 -3
BITMAP
00
00
00
00
3e
66
66
66
66
6e
36
06
66
3c
ENDCHAR
STARTCHAR ch-104
ENCODING 104
SWIDTH 571 0
DWIDTH 8 0
BBX 8 14 0 -3
BITMAP
00
60
60
60
6c
76
66
66
66
66
66
00
00
00
ENDCHAR
STARTCHAR ch-105
ENCODING 105
SWIDTH 571 0
DWIDTH 8 0
BBX 8 14 0 -3
BITMAP
00
18
18
00
78
18
18
18
18
18
7e
00
00
00
ENDCHAR
STARTCHAR ch-106
ENCODING 106
SWIDTH 571 0
DWIDTH 8 0
BBX 8 14 0 -3
BITMAP
00
18
18
00
78
18
18
18
18
18
18
18
18
70
ENDCHAR
STARTCHAR ch-107
ENCODING 107
SWIDTH 571 0
DWIDTH 8 0
BBX 8 14 0 -3
BITMAP
00
60
60
60
66
64
68
78
6c
66
66
00
00
00
ENDCHAR
STARTCHAR ch-108
ENCODING 108
SWIDTH 571 0
DWIDTH 8 0
BBX 8 14 0 -3
BITMAP
00
78
18
18
18
18
18
18
18
18
7e
00
00
00
ENDCHAR
STARTCHAR ch-109
ENCODING 109
SWIDTH 571 0
DWIDTH 8 0
BBX 8 14 0 -3
BITMAP
00
00
00
00
d4
fe
d6
d6
d6
d6
d6
00
00
00
ENDCHAR
STARTCHAR ch-110
ENCODING 110
SWIDTH 571 0
DWIDTH 8 0
BBX 8 14 0 -3
BITMAP
00
00
00
00
6c
76
66
66
66
66
66
00
00
00
ENDCHAR
STARTCHAR ch-111
ENCODING 111
SWIDTH 571 0
DWIDTH 8 0
BBX 8 14 0 -3
BITMAP
00
00
00
00
3c
66
66
66
66
66
3c
00
00
00
ENDCHAR
STARTCHAR ch-112
ENCODING 112
SWIDTH 571 0
DWIDTH 8 0
BBX 8 14 0 -3
BITMAP
00
00
00
00
6c
76
66
66
66
66
7c
60
60
60
ENDCHAR
STARTCHAR ch-113
ENCODING 113
SWIDTH 571 0
DWIDTH 8 0
BBX 8 14 0 -3
BITMAP
00
00
00
00
3e
66
66
66
66
6e
36
06
06
06
ENDCHAR
STARTCHAR ch-114
ENCODING 114
SWIDTH 571 0
DWIDTH 8 0
BBX 8 14 0 -3
BITMAP
00
00
00
00
76
36
38
30
30
30
7c
00
00
00
ENDCHAR
STARTCHAR ch-115
ENCODING 115
SWIDTH 571 0
DWIDTH 8 0
BBX 8 14 0 -3
BITMAP
00
00
00
00
3c
66
60
3c
06
66
3c
00
00
00
ENDCHAR
STARTCHAR ch-116
ENCODING 116
SWIDTH 571 0
DWIDTH 8 0
BBX 8 14 0 -3
BITMAP
00
00
10
30
7e
30
30
30
30
30
1e
00
00
00
ENDCHAR
STARTCHAR ch-117
ENCODING 117
SWIDTH 571 0
DWIDTH 8 0
BBX 8 14 0 -3
BITMAP
00
00
00
00
66
66
66
66
66
6e
36
00
00
00
ENDCHAR
STARTCHAR ch-118
ENCODING 118
SWIDTH 571 0
DWIDTH 8 0
BBX 8 14 0 -3
BITMAP
00
00
00
00
66
62
62
34
34
18
18
00
00
00
ENDCHAR
STARTCHAR ch-119
ENCODING 119
SWIDTH 571 0
DWIDTH 8 0
BBX 8 14 0 -3
BITMAP
00
00
00
00
c2
da
da
da
6c
6c
6c
00
00
00
ENDCHAR
STARTCHAR ch-120
ENCODING 120
SWIDTH 571 0
DWIDTH 8 0
BBX 8 14 0 -3
BITMAP
00
00
00
00
66
62
34
18
2c
46
66
00
00
00
ENDCHAR
STARTCHAR ch-121
ENCODING 121
SWIDTH 571 0
DWIDTH 8 0
BBX 8 14 0 -3
BITMAP
00
00
00
00
66
62
62
34
34
18
18
10
30
60
ENDCHAR
STARTCHAR ch-122
ENCODING 122
SWIDTH 571 0
DWIDTH 8 0
BBX 8 14 0 -3
BITMAP
00
00
00
00
7e
06
0c
18
30
60
7e
00
00
00
ENDCHAR
STARTCHAR ch-123
ENCODING 123
SWIDTH 571 0
DWIDTH 8 0
BBX 8 14 0 -3
BITMAP
00
1c
30
30
18
08
30
08
18
30
30
1c
00
00
ENDCHAR
STARTCHAR ch-124
ENCODING 124
SWIDTH 571 0
DWIDTH 8 0
BBX 8 14 0 -3
BITMAP
00
18
18
18
18
18
18
18
18
18
18
18
00
00
ENDCHAR
STARTCHAR ch-125
ENCODING 125
SWIDTH 571 0
DWIDTH 8 0
BBX 8 14 0 -3
BITMAP
00
38
0c
0c
18
10
0c
10
18
0c
0c
38
00
00
ENDCHAR
STARTCHAR ch-126
ENCODING 126
SWIDTH 571 0
DWIDTH 8 0
BBX 8 14 0 -3
BITMAP
00
00
00
00
00
32
5a
4c
00
00
00
00
00
00
ENDCHAR
STARTCHAR ch-127
ENCODING 127
SWIDTH 571 0
DWIDTH 8 0
BBX 8 14 0 -3
BITMAP
00
00
24
48
92
24
48
92
24
48
92
24
48
00
ENDCHAR
STARTCHAR ch-128
ENCODING 128
SWIDTH 571 0
DWIDTH 8 0
BBX 8 14 0 -3
BITMAP
ff
81
99
a5
a5
85
89
91
91
81
91
81
ff
00
ENDCHAR
STARTCHAR ch-129
ENCODING 129
SWIDTH 571 0
DWIDTH 8 0
BBX 8 14 0 -3
BITMAP
74
82
61
10
e0
18
24
24
18
09
09
8f
49
29
ENDCHAR
STARTCHAR ch-130
ENCODING 130
SWIDTH 571 0
DWIDTH 8 0
BBX 8 14 0 -3
BITMAP
74
82
61
10
e0
00
7c
10
10
10
09
86
46
29
ENDCHAR
STARTCHAR ch-131
ENCODING 131
SWIDTH 571 0
DWIDTH 8 0
BBX 8 14 0 -3
BITMAP
f4
82
e1
80
f0
00
7c
10
10
10
09
86
46
29
ENDCHAR
STARTCHAR ch-132
ENCODING 132
SWIDTH 571 0
DWIDTH 8 0
BBX 8 14 0 -3
BITMAP
f4
82
e1
80
f0
18
24
24
18
00
1f
84
44
24
ENDCHAR
STARTCHAR ch-133
ENCODING 133
SWIDTH 571 0
DWIDTH 8 0
BBX 8 14 0 -3
BITMAP
f4
82
e1
80
f0
24
34
2c
24
0e
11
91
4e
23
ENDCHAR
STARTCHAR ch-134
ENCODING 134
SWIDTH 571 0
DWIDTH 8 0
BBX 8 14 0 -3
BITMAP
74
8a
f9
88
00
1c
20
20
1c
09
0a
8c
4a
29
ENDCHAR
STARTCHAR ch-135
ENCODING 135
SWIDTH 571 0
DWIDTH 8 0
BBX 8 14 0 -3
BITMAP
04
02
19
18
24
42
42
42
42
ff
18
98
40
20
ENDCHAR
STARTCHAR ch-136
ENCODING 136
SWIDTH 571 0
DWIDTH 8 0
BBX 8 14 0 -3
BITMAP
f4
8a
f1
88
88
f0
00
0e
11
10
0e
81
51
2e
ENDCHAR
STARTCHAR ch-137
ENCODING 137
SWIDTH 571 0
DWIDTH 8 0
BBX 8 14 0 -3
BITMAP
04
02
89
88
f8
88
88
00
3e
08
08
88
48
20
ENDCHAR
STARTCHAR ch-138
ENCODING 138
SWIDTH 571 0
DWIDTH 8 0
BBX 8 14 0 -3
BITMAP
04
8a
c9
a8
a8
98
88
00
10
10
10
90
5e
20
ENDCHAR
STARTCHAR ch-139
ENCODING 139
SWIDTH 571 0
DWIDTH 8 0
BBX 8 14 0 -3
BITMAP
04
8a
89
88
88
50
20
00
3e
08
08
88
48
20
ENDCHAR
STARTCHAR ch-140
ENCODING 140
SWIDTH 571 0
DWIDTH 8 0
BBX 8 14 0 -3
BITMAP
f4
82
81
e0
80
80
1e
10
10
1c
10
90
40
20
ENDCHAR
STARTCHAR ch-141
ENCODING 141
SWIDTH 571 0
DWIDTH 8 0
BBX 8 14 0 -3
BITMAP
04
72
81
80
70
00
38
24
38
28
24
80
40
20
ENDCHAR
STARTCHAR ch-142
ENCODING 142
SWIDTH 571 0
DWIDTH 8 0
BBX 8 14 0 -3
BITMAP
04
02
71
80
60
10
e0
06
09
09
06
80
40
20
ENDCHAR
STARTCHAR ch-143
ENCODING 143
SWIDTH 571 0
DWIDTH 8 0
BBX 8 14 0 -3
BITMAP
04
02
71
80
60
10
e0
0e
04
04
04
8e
40
20
ENDCHAR
STARTCHAR ch-144
ENCODING 144
SWIDTH 571 0
DWIDTH 8 0
BBX 8 14 0 -3
BITMAP
e4
92
91
e0
20
20
20
3c
00
0f
08
8e
48
2f
ENDCHAR
STARTCHAR ch-145
ENCODING 145
SWIDTH 571 0
DWIDTH 8 0
BBX 8 14 0 -3
BITMAP
e4
92
91
e0
1c
20
20
1c
00
06
02
82
42
2f
ENDCHAR
STARTCHAR ch-146
ENCODING 146
SWIDTH 571 0
DWIDTH 8 0
BBX 8 14 0 -3
BITMAP
e4
92
91
e0
1c
20
20
1c
00
06
09
82
44
2f
ENDCHAR
STARTCHAR ch-147
ENCODING 147
SWIDTH 571 0
DWIDTH 8 0
BBX 8 14 0 -3
BITMAP
e4
92
91
e0
1c
20
20
1c
00
0f
01
83
41
2f
ENDCHAR
STARTCHAR ch-148
ENCODING 148
SWIDTH 571 0
DWIDTH 8 0
BBX 8 14 0 -3
BITMAP
e4
92
91
e0
1c
20
20
1c
00
0a
0a
8a
4f
22
ENDCHAR
STARTCHAR ch-149
ENCODING 149
SWIDTH 571 0
DWIDTH 8 0
BBX 8 14 0 -3
BITMAP
94
d2
b1
90
00
1c
22
3e
22
09
0a
8c
4a
29
ENDCHAR
STARTCHAR ch-150
ENCODING 150
SWIDTH 571 0
DWIDTH 8 0
BBX 8 14 0 -3
BITMAP
74
82
61
10
e0
24
24
1c
04
04
09
8d
4b
29
ENDCHAR
STARTCHAR ch-151
ENCODING 151
SWIDTH 571 0
DWIDTH 8 0
BBX 8 14 0 -3
BITMAP
f4
82
e1
80
f0
1f
04
04
04
0e
09
8e
49
2e
ENDCHAR
STARTCHAR ch-152
ENCODING 152
SWIDTH 571 0
DWIDTH 8 0
BBX 8 14 0 -3
BITMAP
74
82
81
70
00
1c
22
3e
22
00
09
8d
4b
29
ENDCHAR
STARTCHAR ch-153
ENCODING 153
SWIDTH 571 0
DWIDTH 8 0
BBX 8 14 0 -3
BITMAP
f4
82
81
e0
80
f0
00
11
1b
15
11
91
40
20
ENDCHAR
STARTCHAR ch-154
ENCODING 154
SWIDTH 571 0
DWIDTH 8 0
BBX 8 14 0 -3
BITMAP
74
82
61
10
e0
24
24
24
18
0e
09
8e
49
2f
ENDCHAR
STARTCHAR ch-155
ENCODING 155
SWIDTH 571 0
DWIDTH 8 0
BBX 8 14 0 -3
BITMAP
f4
82
e1
80
f0
1c
20
18
04
38
07
88
48
27
ENDCHAR
STARTCHAR ch-156
ENCODING 156
SWIDTH 571 0
DWIDTH 8 0
BBX 8 14 0 -3
BITMAP
04
02
79
40
40
70
40
47
08
06
01
8e
40
20
ENDCHAR
STARTCHAR ch-157
ENCODING 157
SWIDTH 571 0
DWIDTH 8 0
BBX 8 14 0 -3
BITMAP
04
72
89
80
98
88
70
00
07
08
06
81
4e
20
ENDCHAR
STARTCHAR ch-158
ENCODING 158
SWIDTH 571 0
DWIDTH 8 0
BBX 8 14 0 -3
BITMAP
04
72
49
70
50
48
00
07
08
06
01
8e
40
20
ENDCHAR
STARTCHAR ch-159
ENCODING 159
SWIDTH 571 0
DWIDTH 8 0
BBX 8 14 0 -3
BITMAP
04
02
49
48
48
48
30
00
07
08
06
81
4e
20
ENDCHAR
STARTCHAR ch-160
ENCODING 160
SWIDTH 571 0
DWIDTH 8 0
BBX 8 14 0 -3
BITMAP
00
03
03
00
00
00
00
00
00
00
c0
c0
00
00
ENDCHAR
STARTCHAR ch-161
ENCODING 161
SWIDTH 571 0
DWIDTH 8 0
BBX 8 14 0 -3
BITMAP
00
00
00
18
18
00
08
18
18
18
18
18
00
00
ENDCHAR
STARTCHAR ch-162
ENCODING 162
SWIDTH 571 0
DWIDTH 8 0
BBX 8 14 0 -3
BITMAP
00
00
10
10
7c
d6
d0
d0
d0
d6
7c
10
10
00
ENDCHAR
STARTCHAR ch-163
ENCODING 163
SWIDTH 571 0
DWIDTH 8 0
BBX 8 14 0 -3
BITMAP
00
0e
1a
32
30
30
7e
30
30
fa
7e
00
00
00
ENDCHAR
STARTCHAR ch-164
ENCODING 164
SWIDTH 571 0
DWIDTH 8 0
BBX 8 14 0 -3
BITMAP
00
00
c6
fe
54
6c
6c
6c
54
fe
c6
00
00
00
ENDCHAR
STARTCHAR ch-165
ENCODING 165
SWIDTH 571 0
DWIDTH 8 0
BBX 8 14 0 -3
BITMAP
00
66
62
66
34
34
18
7e
18
7e
18
18
00
00
ENDCHAR
STARTCHAR ch-166
ENCODING 166
SWIDTH 571 0
DWIDTH 8 0
BBX 8 14 0 -3
BITMAP
00
18
18
18
18
18
00
00
18
18
18
18
18
00
ENDCHAR
STARTCHAR ch-167
ENCODING 167
SWIDTH 571 0
DWIDTH 8 0
BBX 8 14 0 -3
BITMAP
00
3c
66
62
60
7c
66
66
3e
06
46
66
3c
00
ENDCHAR
STARTCHAR ch-168
ENCODING 168
SWIDTH 571 0
DWIDTH 8 0
BBX 8 14 0 -3
BITMAP
00
66
66
00
00
00
00
00
00
00
00
00
00
00
ENDCHAR
STARTCHAR ch-169
ENCODING 169
SWIDTH 571 0
DWIDTH 8 0
BBX 8 14 0 -3
BITMAP
00
3c
42
81
9d
a1
a1
a1
9d
81
42
3c
00
00
ENDCHAR
STARTCHAR ch-170
ENCODING 170
SWIDTH 571 0
DWIDTH 8 0
BBX 8 14 0 -3
BITMAP
00
1c
04
1c
14
1e
00
3e
00
00
00
00
00
00
ENDCHAR
STARTCHAR ch-171
ENCODING 171
SWIDTH 571 0
DWIDTH 8 0
BBX 8 14 0 -3
BITMAP
02
06
0c
1a
36
6c
58
6c
36
1a
0c
06
02
00
ENDCHAR
STARTCHAR ch-172
ENCODING 172
SWIDTH 571 0
DWIDTH 8 0
BBX 8 14 0 -3
BITMAP
00
00
00
fe
fe
06
06
06
00
00
00
00
00
00
ENDCHAR
STARTCHAR ch-173
ENCODING 173
SWIDTH 571 0
DWIDTH 8 0
BBX 8 14 0 -3
BITMAP
00
00
00
00
00
00
7c
7c
00
00
00
00
00
00
ENDCHAR
STARTCHAR ch-174
ENCODING 174
SWIDTH 571 0
DWIDTH 8 0
BBX 8 14 0 -3
BITMAP
00
3c
42
81
b9
a5
b9
a9
a5
81
42
3c
00
00
ENDCHAR
STARTCHAR ch-175
ENCODING 175
SWIDTH 571 0
DWIDTH 8 0
BBX 8 14 0 -3
BITMAP
00
fe
fe
00
00
00
00
00
00
00
00
00
00
00
ENDCHAR
STARTCHAR ch-176
ENCODING 176
SWIDTH 571 0
DWIDTH 8 0
BBX 8 14 0 -3
BITMAP
00
38
6c
6c
6c
38
00
00
00
00
00
00
00
00
ENDCHAR
STARTCHAR ch-177
ENCODING 177
SWIDTH 571 0
DWIDTH 8 0
BBX 8 14 0 -3
BITMAP
00
00
18
18
7e
7e
18
18
7e
7e
00
00
00
00
ENDCHAR
STARTCHAR ch-178
ENCODING 178
SWIDTH 571 0
DWIDTH 8 0
BBX 8 14 0 -3
BITMAP
00
3c
6c
18
30
7c
00
00
00
00
00
00
00
00
ENDCHAR
STARTCHAR ch-179
ENCODING 179
SWIDTH 571 0
DWIDTH 8 0
BBX 8 14 0 -3
BITMAP
00
38
6c
18
6c
38
00
00
00
00
00
00
00
00
ENDCHAR
STARTCHAR ch-180
ENCODING 180
SWIDTH 571 0
DWIDTH 8 0
BBX 8 14 0 -3
BITMAP
0c
18
30
00
00
00
00
00
00
00
00
00
00
00
ENDCHAR
STARTCHAR ch-181
ENCODING 181
SWIDTH 571 0
DWIDTH 8 0
BBX 8 14 0 -3
BITMAP
00
00
00
00
66
66
66
66
66
7e
7e
66
c0
c0
ENDCHAR
STARTCHAR ch-182
ENCODING 182
SWIDTH 571 0
DWIDTH 8 0
BBX 8 14 0 -3
BITMAP
00
00
7b
cb
ca
ca
4a
3a
0a
0a
0a
00
00
00
ENDCHAR
STARTCHAR ch-183
ENCODING 183
SWIDTH 571 0
DWIDTH 8 0
BBX 8 14 0 -3
BITMAP
00
00
00
00
00
00
00
18
18
00
00
00
00
00
ENDCHAR
STARTCHAR ch-184
ENCODING 184
SWIDTH 571 0
DWIDTH 8 0
BBX 8 14 0 -3
BITMAP
00
00
00
00
00
00
00
00
00
00
08
08
28
38
ENDCHAR
STARTCHAR ch-185
ENCODING 185
SWIDTH 571 0
DWIDTH 8 0
BBX 8 14 0 -3
BITMAP
00
30
70
30
30
78
00
00
00
00
00
00
00
00
ENDCHAR
STARTCHAR ch-186
ENCODING 186
SWIDTH 571 0
DWIDTH 8 0
BBX 8 14 0 -3
BITMAP
00
38
6c
6c
6c
38
00
7c
00
00
00
00
00
00
ENDCHAR
STARTCHAR ch-187
ENCODING 187
SWIDTH 571 0
DWIDTH 8 0
BBX 8 14 0 -3
BITMAP
40
60
30
58
6c
36
1a
36
6c
58
30
60
40
00
ENDCHAR
STARTCHAR ch-188
ENCODING 188
SWIDTH 571 0
DWIDTH 8 0
BBX 8 14 0 -3
BITMAP
c0
40
42
44
48
10
20
40
94
14
14
1e
04
04
ENDCHAR
STARTCHAR ch-189
ENCODING 189
SWIDTH 571 0
DWIDTH 8 0
BBX 8 14 0 -3
BITMAP
c0
40
42
44
48
10
20
40
8c
12
04
08
1e
00
ENDCHAR
STARTCHAR ch-190
ENCODING 190
SWIDTH 571 0
DWIDTH 8 0
BBX 8 14 0 -3
BITMAP
e0
21
62
24
e8
10
20
40
94
14
14
1e
04
04
ENDCHAR
STARTCHAR ch-191
ENCODING 191
SWIDTH 571 0
DWIDTH 8 0
BBX 8 14 0 -3
BITMAP
00
00
00
18
18
00
18
18
0c
06
66
3c
00
00
ENDCHAR
STARTCHAR ch-192
ENCODING 192
SWIDTH 571 0
DWIDTH 8 0
BBX 8 14 0 -3
BITMAP
60
30
00
18
18
2c
2c
7e
46
46
46
00
00
00
ENDCHAR
STARTCHAR ch-193
ENCODING 193
SWIDTH 571 0
DWIDTH 8 0
BBX 8 14 0 -3
BITMAP
06
0c
00
18
18
2c
2c
7e
46
46
46
00
00
00
ENDCHAR
STARTCHAR ch-194
ENCODING 194
SWIDTH 571 0
DWIDTH 8 0
BBX 8 14 0 -3
BITMAP
18
24
00
18
18
2c
2c
7e
46
46
46
00
00
00
ENDCHAR
STARTCHAR ch-195
ENCODING 195
SWIDTH 571 0
DWIDTH 8 0
BBX 8 14 0 -3
BITMAP
32
4c
00
18
18
2c
2c
7e
46
46
46
00
00
00
ENDCHAR
STARTCHAR ch-196
ENCODING 196
SWIDTH 571 0
DWIDTH 8 0
BBX 8 14 0 -3
BITMAP
66
66
00
18
18
2c
2c
7e
46
46
46
00
00
00
ENDCHAR
STARTCHAR ch-197
ENCODING 197
SWIDTH 571 0
DWIDTH 8 0
BBX 8 14 0 -3
BITMAP
18
24
24
18
1c
2c
2c
7e
46
46
46
00
00
00
ENDCHAR
STARTCHAR ch-198
ENCODING 198
SWIDTH 571 0
DWIDTH 8 0
BBX 8 14 0 -3
BITMAP
00
00
3e
30
50
58
5f
f8
88
89
8f
00
00
00
ENDCHAR
STARTCHAR ch-199
ENCODING 199
SWIDTH 571 0
DWIDTH 8 0
BBX 8 14 0 -3
BITMAP
00
00
1e
32
60
60
60
60
60
32
1e
04
14
1c
ENDCHAR
STARTCHAR ch-200
ENCODING 200
SWIDTH 571 0
DWIDTH 8 0
BBX 8 14 0 -3
BITMAP
30
18
00
7e
60
60
7c
60
60
60
7e
00
00
00
ENDCHAR
STARTCHAR ch-201
ENCODING 201
SWIDTH 571 0
DWIDTH 8 0
BBX 8 14 0 -3
BITMAP
0c
18
00
7e
60
60
7c
60
60
60
7e
00
00
00
ENDCHAR
STARTCHAR ch-202
ENCODING 202
SWIDTH 571 0
DWIDTH 8 0
BBX 8 14 0 -3
BITMAP
18
24
00
7e
60
60
7c
60
60
60
7e
00
00
00
ENDCHAR
STARTCHAR ch-203
ENCODING 203
SWIDTH 571 0
DWIDTH 8 0
BBX 8 14 0 -3
BITMAP
66
66
00
7e
60
60
7c
60
60
60
7e
00
00
00
ENDCHAR
STARTCHAR ch-204
ENCODING 204
SWIDTH 571 0
DWIDTH 8 0
BBX 8 14 0 -3
BITMAP
30
18
00
3c
18
18
18
18
18
18
3c
00
00
00
ENDCHAR
STARTCHAR ch-205
ENCODING 205
SWIDTH 571 0
DWIDTH 8 0
BBX 8 14 0 -3
BITMAP
0c
18
00
3c
18
18
18
18
18
18
3c
00
00
00
ENDCHAR
STARTCHAR ch-206
ENCODING 206
SWIDTH 571 0
DWIDTH 8 0
BBX 8 14 0 -3
BITMAP
18
24
00
3c
18
18
18
18
18
18
3c
00
00
00
ENDCHAR
STARTCHAR ch-207
ENCODING 207
SWIDTH 571 0
DWIDTH 8 0
BBX 8 14 0 -3
BITMAP
66
66
00
3c
18
18
18
18
18
18
3c
00
00
00
ENDCHAR
STARTCHAR ch-208
ENCODING 208
SWIDTH 571 0
DWIDTH 8 0
BBX 8 14 0 -3
BITMAP
00
00
78
6c
66
66
f6
66
66
6c
78
00
00
00
ENDCHAR
STARTCHAR ch-209
ENCODING 209
SWIDTH 571 0
DWIDTH 8 0
BBX 8 14 0 -3
BITMAP
32
4c
00
62
72
72
5a
5a
4e
4e
46
00
00
00
ENDCHAR
STARTCHAR ch-210
ENCODING 210
SWIDTH 571 0
DWIDTH 8 0
BBX 8 14 0 -3
BITMAP
30
18
00
3c
24
66
66
66
66
24
3c
00
00
00
ENDCHAR
STARTCHAR ch-211
ENCODING 211
SWIDTH 571 0
DWIDTH 8 0
BBX 8 14 0 -3
BITMAP
0c
18
00
3c
24
66
66
66
66
24
3c
00
00
00
ENDCHAR
STARTCHAR ch-212
ENCODING 212
SWIDTH 571 0
DWIDTH 8 0
BBX 8 14 0 -3
BITMAP
18
24
00
3c
24
66
66
66
66
24
3c
00
00
00
ENDCHAR
STARTCHAR ch-213
ENCODING 213
SWIDTH 571 0
DWIDTH 8 0
BBX 8 14 0 -3
BITMAP
32
4c
00
3c
24
66
66
66
66
24
3c
00
00
00
ENDCHAR
STARTCHAR ch-214
ENCODING 214
SWIDTH 571 0
DWIDTH 8 0
BBX 8 14 0 -3
BITMAP
66
66
00
3c
24
66
66
66
66
24
3c
00
00
00
ENDCHAR
STARTCHAR ch-215
ENCODING 215
SWIDTH 571 0
DWIDTH 8 0
BBX 8 14 0 -3
BITMAP
00
00
00
82
c6
6c
38
38
6c
c6
82
00
00
00
ENDCHAR
STARTCHAR ch-216
ENCODING 216
SWIDTH 571 0
DWIDTH 8 0
BBX 8 14 0 -3
BITMAP
00
01
3f
26
66
6e
7e
76
66
e4
bc
00
00
00
ENDCHAR
STARTCHAR ch-217
ENCODING 217
SWIDTH 571 0
DWIDTH 8 0
BBX 8 14 0 -3
BITMAP
30
18
00
62
62
62
62
62
62
34
18
00
00
00
ENDCHAR
STARTCHAR ch-218
ENCODING 218
SWIDTH 571 0
DWIDTH 8 0
BBX 8 14 0 -3
BITMAP
0c
18
00
62
62
62
62
62
62
34
18
00
00
00
ENDCHAR
STARTCHAR ch-219
ENCODING 219
SWIDTH 571 0
DWIDTH 8 0
BBX 8 14 0 -3
BITMAP
18
24
00
62
62
62
62
62
62
34
18
00
00
00
ENDCHAR
STARTCHAR ch-220
ENCODING 220
SWIDTH 571 0
DWIDTH 8 0
BBX 8 14 0 -3
BITMAP
66
66
00
62
62
62
62
62
62
34
18
00
00
00
ENDCHAR
STARTCHAR ch-221
ENCODING 221
SWIDTH 571 0
DWIDTH 8 0
BBX 8 14 0 -3
BITMAP
0c
18
00
66
62
36
34
18
18
18
18
00
00
00
ENDCHAR
STARTCHAR ch-222
ENCODING 222
SWIDTH 571 0
DWIDTH 8 0
BBX 8 14 0 -3
BITMAP
00
70
60
7c
66
66
64
78
60
60
60
00
00
00
ENDCHAR
STARTCHAR ch-223
ENCODING 223
SWIDTH 571 0
DWIDTH 8 0
BBX 8 14 0 -3
BITMAP
00
00
3c
62
62
66
7c
66
62
62
7c
60
40
40
ENDCHAR
STARTCHAR ch-224
ENCODING 224
SWIDTH 571 0
DWIDTH 8 0
BBX 8 14 0 -3
BITMAP
30
18
00
00
3c
66
06
3e
66
6e
36
00
00
00
ENDCHAR
STARTCHAR ch-225
ENCODING 225
SWIDTH 571 0
DWIDTH 8 0
BBX 8 14 0 -3
BITMAP
0c
18
00
00
3c
66
06
3e
66
6e
36
00
00
00
ENDCHAR
STARTCHAR ch-226
ENCODING 226
SWIDTH 571 0
DWIDTH 8 0
BBX 8 14 0 -3
BITMAP
18
24
00
00
3c
66
06
3e
66
6e
36
00
00
00
ENDCHAR
STARTCHAR ch-227
ENCODING 227
SWIDTH 571 0
DWIDTH 8 0
BBX 8 14 0 -3
BITMAP
32
4c
00
00
3c
66
06
3e
66
6e
36
00
00
00
ENDCHAR
STARTCHAR ch-228
ENCODING 228
SWIDTH 571 0
DWIDTH 8 0
BBX 8 14 0 -3
BITMAP
66
66
00
00
3c
66
06
3e
66
6e
36
00
00
00
ENDCHAR
STARTCHAR ch-229
ENCODING 229
SWIDTH 571 0
DWIDTH 8 0
BBX 8 14 0 -3
BITMAP
18
24
24
18
3c
66
06
3e
66
6e
36
00
00
00
ENDCHAR
STARTCHAR ch-230
ENCODING 230
SWIDTH 571 0
DWIDTH 8 0
BBX 8 14 0 -3
BITMAP
00
00
00
00
7e
c9
09
7e
c8
d9
6f
00
00
00
ENDCHAR
STARTCHAR ch-231
ENCODING 231
SWIDTH 571 0
DWIDTH 8 0
BBX 8 14 0 -3
BITMAP
00
00
00
00
3c
66
60
60
60
66
3c
08
28
38
ENDCHAR
STARTCHAR ch-232
ENCODING 232
SWIDTH 571 0
DWIDTH 8 0
BBX 8 14 0 -3
BITMAP
30
18
00
00
3c
66
66
7e
60
66
3c
00
00
00
ENDCHAR
STARTCHAR ch-233
ENCODING 233
SWIDTH 571 0
DWIDTH 8 0
BBX 8 14 0 -3
BITMAP
0c
18
00
00
3c
66
66
7e
60
66
3c
00
00
00
ENDCHAR
STARTCHAR ch-234
ENCODING 234
SWIDTH 571 0
DWIDTH 8 0
BBX 8 14 0 -3
BITMAP
18
24
00
00
3c
66
66
7e
60
66
3c
00
00
00
ENDCHAR
STARTCHAR ch-235
ENCODING 235
SWIDTH 571 0
DWIDTH 8 0
BBX 8 14 0 -3
BITMAP
66
66
00
00
3c
66
66
7e
60
66
3c
00
00
00
ENDCHAR
STARTCHAR ch-236
ENCODING 236
SWIDTH 571 0
DWIDTH 8 0
BBX 8 14 0 -3
BITMAP
60
30
00
00
78
18
18
18
18
18
7e
00
00
00
ENDCHAR
STARTCHAR ch-237
ENCODING 237
SWIDTH 571 0
DWIDTH 8 0
BBX 8 14 0 -3
BITMAP
18
30
00
00
78
18
18
18
18
18
7e
00
00
00
ENDCHAR
STARTCHAR ch-238
ENCODING 238
SWIDTH 571 0
DWIDTH 8 0
BBX 8 14 0 -3
BITMAP
18
24
00
00
78
18
18
18
18
18
7e
00
00
00
ENDCHAR
STARTCHAR ch-239
ENCODING 239
SWIDTH 571 0
DWIDTH 8 0
BBX 8 14 0 -3
BITMAP
66
66
00
00
78
18
18
18
18
18
7e
00
00
00
ENDCHAR
STARTCHAR ch-240
ENCODING 240
SWIDTH 571 0
DWIDTH 8 0
BBX 8 14 0 -3
BITMAP
00
06
3f
06
3e
66
66
66
66
6e
36
00
00
00
ENDCHAR
STARTCHAR ch-241
ENCODING 241
SWIDTH 571 0
DWIDTH 8 0
BBX 8 14 0 -3
BITMAP
32
4c
00
00
6c
76
66
66
66
66
66
00
00
00
ENDCHAR
STARTCHAR ch-242
ENCODING 242
SWIDTH 571 0
DWIDTH 8 0
BBX 8 14 0 -3
BITMAP
30
18
00
00
3c
66
66
66
66
66
3c
00
00
00
ENDCHAR
STARTCHAR ch-243
ENCODING 243
SWIDTH 571 0
DWIDTH 8 0
BBX 8 14 0 -3
BITMAP
0c
18
00
00
3c
66
66
66
66
66
3c
00
00
00
ENDCHAR
STARTCHAR ch-244
ENCODING 244
SWIDTH 571 0
DWIDTH 8 0
BBX 8 14 0 -3
BITMAP
18
24
00
00
3c
66
66
66
66
66
3c
00
00
00
ENDCHAR
STARTCHAR ch-245
ENCODING 245
SWIDTH 571 0
DWIDTH 8 0
BBX 8 14 0 -3
BITMAP
32
4c
00
00
3c
66
66
66
66
66
3c
00
00
00
ENDCHAR
STARTCHAR ch-246
ENCODING 246
SWIDTH 571 0
DWIDTH 8 0
BBX 8 14 0 -3
BITMAP
66
66
00
00
3c
66
66
66
66
66
3c
00
00
00
ENDCHAR
STARTCHAR ch-247
ENCODING 247
SWIDTH 571 0
DWIDTH 8 0
BBX 8 14 0 -3
BITMAP
00
00
18
18
00
00
7e
7e
00
00
18
18
00
00
ENDCHAR
STARTCHAR ch-248
ENCODING 248
SWIDTH 571 0
DWIDTH 8 0
BBX 8 14 0 -3
BITMAP
00
00
00
00
3f
66
6e
7e
76
66
fc
00
00
00
ENDCHAR
STARTCHAR ch-249
ENCODING 249
SWIDTH 571 0
DWIDTH 8 0
BBX 8 14 0 -3
BITMAP
30
18
00
00
66
66
66
66
66
6e
36
00
00
00
ENDCHAR
STARTCHAR ch-250
ENCODING 250
SWIDTH 571 0
DWIDTH 8 0
BBX 8 14 0 -3
BITMAP
0c
18
00
00
66
66
66
66
66
6e
36
00
00
00
ENDCHAR
STARTCHAR ch-251
ENCODING 251
SWIDTH 571 0
DWIDTH 8 0
BBX 8 14 0 -3
BITMAP
18
24
00
00
66
66
66
66
66
6e
36
00
00
00
ENDCHAR
STARTCHAR ch-252
ENCODING 252
SWIDTH 571 0
DWIDTH 8 0
BBX 8 14 0 -3
BITMAP
66
66
00
00
66
66
66
66
66
6e
36
00
00
00
ENDCHAR
STARTCHAR ch-253
ENCODING 253
SWIDTH 571 0
DWIDTH 8 0
BBX 8 14 0 -3
BITMAP
0c
18
00
00
66
62
62
34
34
18
18
10
30
60
ENDCHAR
STARTCHAR ch-254
ENCODING 254
SWIDTH 571 0
DWIDTH 8 0
BBX 8 14 0 -3
BITMAP
00
f8
60
60
6c
76
66
66
66
66
7c
60
60
60
ENDCHAR
STARTCHAR ch-255
ENCODING 255
SWIDTH 571 0
DWIDTH 8 0
BBX 8 14 0 -3
BITMAP
66
66
00
00
66
62
62
34
34
18
18
10
30
60
ENDCHAR
ENDFONT
